<?xml version="1.0" encoding="UTF-8" standalone="no"?>
<!-- Created with Inkscape (http://www.inkscape.org/) -->

<svg
   xmlns:dc="http://purl.org/dc/elements/1.1/"
   xmlns:cc="http://creativecommons.org/ns#"
   xmlns:rdf="http://www.w3.org/1999/02/22-rdf-syntax-ns#"
   xmlns:svg="http://www.w3.org/2000/svg"
   xmlns="http://www.w3.org/2000/svg"
   xmlns:sodipodi="http://sodipodi.sourceforge.net/DTD/sodipodi-0.dtd"
   xmlns:inkscape="http://www.inkscape.org/namespaces/inkscape"
   width="210mm"
   height="297mm"
   viewBox="0 0 210 297"
   version="1.1"
   id="svg8"
   inkscape:version="0.92pre1 unknown"
   sodipodi:docname="pomodoro.svg">
  <defs
     id="defs2" />
  <sodipodi:namedview
     id="base"
     pagecolor="#ffffff"
     bordercolor="#666666"
     borderopacity="1.0"
     inkscape:pageopacity="0.0"
     inkscape:pageshadow="2"
     inkscape:zoom="1.979899"
     inkscape:cx="249.01471"
     inkscape:cy="503.24892"
     inkscape:document-units="mm"
     inkscape:current-layer="layer1"
     showgrid="false"
     inkscape:window-width="1551"
     inkscape:window-height="876"
     inkscape:window-x="1009"
     inkscape:window-y="24"
     inkscape:window-maximized="1" />
  <metadata
     id="metadata5">
    <rdf:RDF>
      <cc:Work
         rdf:about="">
        <dc:format>image/svg+xml</dc:format>
        <dc:type
           rdf:resource="http://purl.org/dc/dcmitype/StillImage" />
        <dc:title />
      </cc:Work>
    </rdf:RDF>
  </metadata>
  <g
     inkscape:label="Layer 1"
     inkscape:groupmode="layer"
     id="layer1">
    <path
       style="opacity:1;fill:#008000;fill-opacity:1;stroke:none;stroke-width:0.04815416;stroke-miterlimit:4;stroke-dasharray:none"
       d="m 102.12294,169.76194 c -0.11212,0.10147 -1.49501,0.49219 -1.60761,0.45466 0.93448,-1.052 1.59829,-2.07398 2.55125,-2.87584 l 1.91844,0.079 c 1.05514,0.0435 2.02368,0.0847 2.1523,0.0916 0.20768,0.0112 0.23602,0.035 0.25315,0.21303 0.0938,1.00169 0.55629,1.81179 1.13629,2.58917 0.17217,0.18354 0.17219,0.18375 0.0227,0.18375 -0.37504,0 -1.10229,-0.22579 -1.42351,-0.44195 -0.29129,-0.19603 -0.35874,-0.21735 -0.45731,-0.14456 -0.48987,0.36172 -0.90654,0.68527 -0.9345,0.72566 -0.55123,-0.0272 -1.23211,-0.56875 -1.6121,-0.63657 -0.55561,0.29541 -0.4261,0.26509 -1.25925,0.90012 -0.5652,-0.63255 -0.73988,-1.13812 -0.73988,-1.13812 z"
       id="path4470"
       inkscape:connector-curvature="0"
       sodipodi:nodetypes="cccscccscccccc" />
    <path
       style="opacity:1;fill:#ff0000;fill-opacity:1;stroke:#004c00;stroke-width:0.04815416;stroke-miterlimit:4;stroke-dasharray:none"
       d="m 101.47907,168.92832 c -0.72554,-0.0369 -2.506416,-0.19027 -3.95749,-0.34076 -9.461017,-0.9812 -14.867709,-2.78172 -19.081473,-6.35445 -2.731796,-2.31621 -4.205053,-4.70312 -5.092966,-8.25141 -1.0139,-4.05176 -0.692567,-8.30302 0.895008,-11.84093 1.332574,-2.96965 3.136597,-5.33823 5.44892,-7.15413 1.270225,-0.99752 1.983976,-1.37821 4.184464,-2.23184 3.792621,-1.47125 6.245347,-1.95544 10.018343,-1.97769 3.570706,-0.0211 5.496517,0.16147 5.496517,0.52095 0,0.39529 1.344337,0.2442 1.948417,-0.21898 0.28564,-0.21901 0.8298,-0.43441 1.20924,-0.47865 0.37945,-0.0443 1.38246,-0.17314 2.22894,-0.28642 2.77177,-0.37093 3.41143,-0.37974 5.56621,-0.0766 5.05876,0.71178 11.22695,2.79584 15.11319,5.10635 7.53693,4.48098 11.31001,10.14898 11.34248,17.03896 0.012,2.54524 -0.3536,3.80431 -1.68329,5.79696 -3.77409,5.65581 -11.02559,9.09549 -21.98389,10.42785 -2.16046,0.26267 -9.06143,0.45263 -11.65262,0.32074 z"
       id="path4351"
       inkscape:connector-curvature="0" />
    <path
       style="opacity:1;fill:#008000;fill-opacity:1;stroke:none;stroke-width:0.04815416;stroke-miterlimit:4;stroke-dasharray:none"
       id="path4365"
       d="m 101.90942,132.94408 c -0.0985,-0.12062 -0.047,-0.0516 -0.14979,-0.21041 -0.002,2.6e-4 -0.006,-0.0278 -0.004,-0.0281 v 0 c 0.0568,-0.19334 0.0257,-0.10712 0.0882,-0.26048 0.0318,-0.004 0.0974,0.49477 0.0657,0.49895 z"
       inkscape:connector-curvature="0" />
    <g
       id="g4489"
       transform="matrix(0.99514559,0,0,1.1276438,-25.831629,-1.932583)"
       style="stroke-width:0.9439972">
      <path
         style="opacity:1;fill:#800000;fill-opacity:1;stroke:none;stroke-width:0.0454574;stroke-miterlimit:4;stroke-dasharray:none"
         d="m 129.77122,143.31724 c -0.4752,-1.26366 -2.81561,-4.77417 -4.0928,-6.13902 -3.48969,-3.7292 -4.48869,-5.71601 -4.67798,-9.30358 -0.0968,-1.83412 0.0779,-2.58613 0.97605,-4.20214 1.23447,-2.22115 1.80065,-2.72565 4.56002,-4.06322 1.22896,-0.89212 4.01382,0.43902 4.46052,0.85061 0.53805,0.533 1.42053,1.56231 1.96105,2.28736 2.69094,3.23708 5.22411,6.45875 5.33408,10.40747 0.0412,2.76896 -0.48538,3.71119 -3.74569,6.70185 -1.09474,1.00421 -2.40242,2.24584 -2.90595,2.75922 -0.74898,0.71329 -1.50741,1.66013 -1.8693,0.70145 z"
         id="path4474"
         inkscape:connector-curvature="0"
         sodipodi:nodetypes="ccscccccccc" />
      <path
         style="opacity:1;fill:#800000;fill-opacity:1;stroke:none;stroke-width:0.0454574;stroke-miterlimit:4;stroke-dasharray:none"
         d="m 104.20852,124.21131 c 0.11594,-0.30215 2.96473,-2.61793 4.13132,-3.35837 2.8273,-1.79449 5.99991,-2.94583 9.26982,-3.36404 1.4067,-0.1799 4.58055,-0.21144 5.55168,-0.0551 1.47513,0.23739 3.63202,1.09152 3.86751,1.53154 0.0461,0.0861 0.30783,0.33478 0.58161,0.55254 0.4744,0.37731 0.9373,0.94732 0.76694,0.9444 -0.0441,-7.9e-4 -0.25824,-0.0634 -0.47591,-0.13926 -0.5215,-0.1817 -2.88758,-0.42633 -4.12354,-0.42633 -1.49637,0 -5.43066,0.35725 -7.38695,0.67077 -0.83035,0.13307 -4.7367,0.98753 -5.43315,1.18842 -0.87884,0.2535 -6.04733,2.18507 -6.39379,2.38948 -0.38469,0.22697 -0.41982,0.2335 -0.35554,0.066 z"
         id="path4476"
         inkscape:connector-curvature="0" />
      <path
         inkscape:connector-curvature="0"
         id="path4478"
         d="m 156.2132,123.74958 c -0.1359,-0.30215 -3.47503,-2.61793 -4.84242,-3.35837 -3.31394,-1.79449 -7.03263,-2.94583 -10.86536,-3.36404 -1.64882,-0.1799 -5.36896,-0.21144 -6.50725,-0.0551 -1.72903,0.23739 -4.25717,1.09152 -4.53319,1.53154 -0.054,0.0861 -0.36082,0.33478 -0.68172,0.55254 -0.55605,0.37731 -1.09863,0.94732 -0.89895,0.9444 0.0517,-7.9e-4 0.30269,-0.0634 0.55783,-0.13926 0.61126,-0.1817 3.3846,-0.42633 4.83329,-0.42633 1.75393,0 6.3654,0.35725 8.65841,0.67077 0.97327,0.13307 5.55199,0.98753 6.36832,1.18842 1.0301,0.2535 7.08821,2.18507 7.4943,2.38948 0.4509,0.22697 0.49208,0.2335 0.41674,0.066 z"
         style="opacity:1;fill:#800000;fill-opacity:1;stroke:none;stroke-width:0.0454574;stroke-miterlimit:4;stroke-dasharray:none" />
    </g>
    <g
       id="g4452"
       transform="translate(1.80005,-1.15074)">
      <path
         sodipodi:nodetypes="cccccccccccc"
         inkscape:connector-curvature="0"
         d="m 100.04378,133.59583 c -0.590463,-0.4825 -1.186503,-0.9743 -1.665133,-1.57348 -0.292183,-0.36577 -0.578359,-0.84661 -0.826824,-1.24299 -0.580696,-1.18591 -1.159586,-2.42934 -1.347356,-3.75098 -0.03479,-0.24488 -0.03579,-0.49339 -0.05369,-0.74008 -0.0043,-0.87121 0.198715,-1.72443 0.714835,-2.4402 0.939807,-1.29282 1.786525,-2.47798 3.024485,-3.04025 2.922413,1.54368 2.235483,1.7811 1.526403,2.65124 -0.50676,0.86524 -1.899883,2.0071 -2.023593,2.79606 -0.0791,1.19882 0.22445,1.87468 0.805383,2.90612 0.38909,0.73237 0.87736,1.43938 1.61892,1.85226 2.27894,2.09436 0.81402,1.57896 -1.77343,2.5823 z"
         id="path4359"
         style="opacity:1;fill:#008000;fill-opacity:1;stroke:none;stroke-width:0.04815416;stroke-miterlimit:4;stroke-dasharray:none" />
      <path
         sodipodi:nodetypes="ccscccccccc"
         inkscape:connector-curvature="0"
         id="path4373"
         d="m 102.65462,156.27153 c -0.4752,-1.26366 -2.815606,-4.77417 -4.092804,-6.13902 -3.489687,-3.7292 -4.488685,-5.71601 -4.677971,-9.30358 -0.09677,-1.83412 0.0779,-2.58613 0.976044,-4.20214 1.234472,-2.22115 1.800648,-2.72565 4.560025,-4.06322 1.228956,-0.89212 4.013816,0.43902 4.460516,0.85061 0.53805,0.533 1.42053,1.56231 1.96105,2.28736 2.69094,3.23708 5.22411,6.45875 5.33408,10.40747 0.0412,2.76896 -0.48538,3.71119 -3.74569,6.70185 -1.09474,1.00421 -2.40242,2.24584 -2.90595,2.75922 -0.74898,0.71329 -1.50741,1.66013 -1.8693,0.70145 z"
         style="opacity:1;fill:#008000;fill-opacity:1;stroke:none;stroke-width:0.04815416;stroke-miterlimit:4;stroke-dasharray:none" />
      <path
         inkscape:connector-curvature="0"
         id="path4444"
         d="m 77.09192,137.1656 c 0.115943,-0.30215 2.964733,-2.61793 4.131326,-3.35837 2.827298,-1.79449 5.999906,-2.94583 9.269817,-3.36404 1.4067,-0.1799 4.580549,-0.21144 5.551678,-0.0551 1.475129,0.23739 3.632025,1.09152 3.867515,1.53154 0.0461,0.0861 0.307824,0.33478 0.581604,0.55254 0.4744,0.37731 0.9373,0.94732 0.76694,0.9444 -0.0441,-7.9e-4 -0.25824,-0.0634 -0.47591,-0.13926 -0.5215,-0.1817 -2.887581,-0.42633 -4.12354,-0.42633 -1.496367,0 -5.430658,0.35725 -7.386947,0.67077 -0.830353,0.13307 -4.736701,0.98753 -5.433153,1.18842 -0.878834,0.2535 -6.047324,2.18507 -6.393785,2.38948 -0.384689,0.22697 -0.41982,0.2335 -0.355545,0.066 z"
         style="opacity:1;fill:#008000;fill-opacity:1;stroke:none;stroke-width:0.04815416;stroke-miterlimit:4;stroke-dasharray:none" />
      <path
         style="opacity:1;fill:#008000;fill-opacity:1;stroke:none;stroke-width:0.04815416;stroke-miterlimit:4;stroke-dasharray:none"
         d="m 129.0966,136.70387 c -0.1359,-0.30215 -3.47503,-2.61793 -4.84242,-3.35837 -3.31394,-1.79449 -7.03263,-2.94583 -10.86536,-3.36404 -1.64882,-0.1799 -5.36896,-0.21144 -6.50725,-0.0551 -1.72903,0.23739 -4.25717,1.09152 -4.53319,1.53154 -0.054,0.0861 -0.36082,0.33478 -0.68172,0.55254 -0.55605,0.37731 -1.09863,0.94732 -0.89895,0.9444 0.0517,-7.9e-4 0.30269,-0.0634 0.55783,-0.13926 0.61126,-0.1817 3.3846,-0.42633 4.83329,-0.42633 1.75393,0 6.3654,0.35725 8.65841,0.67077 0.97327,0.13307 5.55199,0.98753 6.36832,1.18842 1.0301,0.2535 7.08821,2.18507 7.4943,2.38948 0.4509,0.22697 0.49208,0.2335 0.41674,0.066 z"
         id="path4446"
         inkscape:connector-curvature="0" />
    </g>
  </g>
</svg>
